<svg xmlns="http://www.w3.org/2000/svg" xmlns:xlink="http://www.w3.org/1999/xlink" width="197" height="91" viewBox="0 0 197 91">
  <defs>
    <polygon id="logo-a" points="90.473 .959 1.486 .959 1.486 90.265 90.473 90.265"/>
  </defs>
  <g fill="none" fill-rule="evenodd" transform="translate(0 -1)">
    <path fill="#000" d="M65.4132743,80.4566372 C65.7318584,71.2176991 66.0504425,61.0247788 66.0504425,53.1663717 L66.0504425,50.4053097 C66.0504425,46.4761062 63.7141593,44.4584071 60.2097345,44.4584071 L41.519469,44.4584071 C38.6522124,57.4141593 35.4681416,70.580531 32.7070796,80.4566372 L65.4132743,80.4566372 Z M2.65575221,85.660177 C0.848672566,85.660177 0.000884955752,84.279646 0.000884955752,83.0053097 C0.000884955752,81.6247788 0.848672566,80.3504425 2.54778761,80.3504425 L26.760177,80.4566372 C29.5212389,70.2619469 32.600885,57.0955752 35.4681416,44.4584071 C27.9283186,44.4584071 20.3884956,44.5646018 14.0168142,44.6707965 C12.2115044,44.6707965 11.3619469,43.3964602 11.3619469,42.0159292 C11.3619469,40.7415929 12.2115044,39.4672566 14.0168142,39.4672566 C20.7070796,39.3610619 28.5654867,39.3610619 36.6362832,39.3610619 C38.5460177,30.6530973 40.3513274,22.3716814 41.6274336,15.6814159 L9.13185841,15.7858407 C7.32654867,15.7858407 6.47699115,14.5132743 6.47699115,13.2389381 C6.47699115,11.9646018 7.43274336,10.5840708 9.13185841,10.5840708 L81.0221239,10.5840708 C82.8274336,10.5840708 83.6769912,11.8584071 83.6769912,13.2389381 C83.6769912,14.5132743 82.8274336,15.7858407 81.0221239,15.7858407 L47.5725664,15.6814159 C46.2982301,22.4778761 44.599115,30.759292 42.6893805,39.3610619 L61.059292,39.3610619 C67.9619469,39.4672566 72.1035398,43.1840708 72.1035398,49.3433628 C72.1035398,55.3964602 71.5725664,76.4212389 71.4663717,80.4566372 L88.2433628,80.3504425 C89.9424779,80.3504425 90.7920354,81.7309735 90.7920354,83.0053097 C90.7920354,84.3858407 89.9424779,85.660177 88.2433628,85.660177 L2.65575221,85.660177 Z"/>
    <g transform="translate(106.195 .81)">
      <mask id="logo-b" fill="#fff">
        <use xlink:href="#logo-a"/>
      </mask>
      <path fill="#000" d="M27.2909735,45.8776991 L27.2909735,56.8157522 C31.220177,56.9219469 34.9369912,56.9219469 38.4414159,56.9219469 C45.5546903,56.9219469 51.820177,56.8157522 57.3423009,56.4971681 C62.3334513,56.2847788 64.0325664,53.3113274 64.0325664,45.8776991 L27.2909735,45.8776991 Z M64.0325664,41.5237168 C64.0325664,35.0458407 63.3953982,30.9060177 57.3423009,30.7980531 C54.899823,30.6918584 52.0325664,30.6918584 48.9529204,30.6918584 C43.8555752,30.6918584 38.4414159,30.7980531 33.8750442,30.9060177 C29.6272566,31.0122124 27.5033628,33.240531 27.3971681,37.1697345 C27.3971681,38.3378761 27.2909735,39.8246018 27.2909735,41.5237168 L64.0325664,41.5237168 Z M42.3706195,16.7821239 C42.3706195,15.1892035 43.7493805,14.339646 45.1316814,14.339646 C46.5104425,14.339646 47.8927434,15.1892035 47.8927434,16.7821239 L47.8927434,26.3378761 C51.5015929,26.3378761 54.899823,26.3378761 58.2980531,26.4458407 C66.1564602,26.6582301 68.8113274,30.9060177 69.0237168,35.0458407 C69.1299115,37.5945133 69.2361062,40.9927434 69.2361062,44.1785841 C69.2361062,58.5148673 68.5989381,61.1697345 47.7865487,61.1697345 C49.8024779,65.2033628 52.3511504,68.8139823 55.3246018,71.7892035 C62.2272566,69.3449558 69.660885,66.2670796 75.9263717,62.5484956 C76.4573451,62.2316814 76.9883186,62.1254867 77.519292,62.1254867 C79.1122124,62.1254867 80.3865487,63.399823 80.3865487,64.780354 C80.3865487,66.3732743 79.1122124,68.3909735 59.36,75.1874336 C66.6874336,80.7077876 76.2449558,83.8936283 87.9246018,84.7431858 C89.6237168,84.8493805 90.4732743,86.0175221 90.4732743,87.2918584 C90.4732743,88.7785841 89.3069027,90.2653097 87.0750442,90.2653097 C86.2254867,90.2653097 55.2184071,89.5219469 42.4768142,61.2759292 C37.4856637,61.2759292 32.2821239,61.1697345 27.1847788,61.0635398 C27.0785841,65.2033628 27.0785841,69.9838938 27.0785841,74.6546903 L27.0785841,80.3909735 C33.7688496,78.6918584 40.0343363,76.7785841 44.5989381,75.0812389 C44.9175221,74.9732743 45.2378761,74.8670796 45.5546903,74.8670796 C47.0414159,74.8670796 48.1033628,76.1414159 48.1033628,77.4157522 C48.1033628,78.3715044 47.5723894,79.3272566 46.0874336,79.8582301 C31.9635398,85.2741593 6.90159292,90.2653097 5.09628319,90.2653097 C3.18477876,90.2653097 2.22902655,88.8847788 2.22902655,87.6104425 C2.22902655,86.3361062 2.97238938,85.1679646 4.67150442,84.9555752 C10.299823,84.1060177 16.140531,82.9378761 21.8750442,81.6635398 C21.8750442,66.479469 21.8750442,49.2759292 21.9812389,35.6830088 C21.9812389,30.9060177 25.379469,26.6582301 32.0697345,26.4458407 C35.4679646,26.3378761 38.9723894,26.3378761 42.3706195,26.3378761 L42.3706195,16.7821239 Z M86.2254867,32.4971681 C83.1476106,32.4971681 61.059115,19.2246018 49.3776991,8.39274336 C47.8927434,7.01221239 46.5104425,6.26884956 45.1316814,6.26884956 C43.9617699,6.26884956 42.6892035,6.9060177 41.3069027,8.28654867 C30.2644248,19.6493805 7.85911504,35.1520354 4.46088496,35.1520354 C2.76176991,35.1520354 1.48566372,33.6653097 1.48566372,32.2847788 C1.48566372,31.3290265 2.01840708,30.3732743 3.29097345,29.7361062 C15.6095575,24.0033628 29.7334513,12.8529204 37.9104425,4.25115044 C39.9281416,2.12725664 42.2626549,0.959115044 44.8113274,0.959115044 C47.2538053,0.959115044 49.8024779,2.02106195 52.4573451,4.35734513 C62.8644248,13.4900885 75.1830088,21.0281416 87.7139823,26.8688496 C88.880354,27.4015929 89.4130973,28.4635398 89.4130973,29.419292 C89.4130973,31.0122124 88.1369912,32.4971681 86.2254867,32.4971681 L86.2254867,32.4971681 Z" mask="url(#logo-b)"/>
    </g>
  </g>
</svg>
