<svg xmlns="http://www.w3.org/2000/svg" xmlns:xlink="http://www.w3.org/1999/xlink" width="197" height="91" viewBox="0 0 197 91">
  <defs>
    <polygon id="logo-white-a" points="89.473 .959 .486 .959 .486 90.265 89.473 90.265"/>
  </defs>
  <g fill="none" fill-rule="evenodd" transform="translate(0 -1)">
    <path fill="#FFF" d="M65.4132743,80.4566372 C65.7318584,71.2176991 66.0504425,61.0247788 66.0504425,53.1663717 L66.0504425,50.4053097 C66.0504425,46.4761062 63.7141593,44.4584071 60.2097345,44.4584071 L41.519469,44.4584071 C38.6522124,57.4141593 35.4681416,70.580531 32.7070796,80.4566372 L65.4132743,80.4566372 Z M2.65575221,85.660177 C0.848672566,85.660177 0.000884955752,84.279646 0.000884955752,83.0053097 C0.000884955752,81.6247788 0.848672566,80.3504425 2.54778761,80.3504425 L26.760177,80.4566372 C29.5212389,70.2619469 32.600885,57.0955752 35.4681416,44.4584071 C27.9283186,44.4584071 20.3884956,44.5646018 14.0168142,44.6707965 C12.2115044,44.6707965 11.3619469,43.3964602 11.3619469,42.0159292 C11.3619469,40.7415929 12.2115044,39.4672566 14.0168142,39.4672566 C20.7070796,39.3610619 28.5654867,39.3610619 36.6362832,39.3610619 C38.5460177,30.6530973 40.3513274,22.3716814 41.6274336,15.6814159 L9.13185841,15.7858407 C7.32654867,15.7858407 6.47699115,14.5132743 6.47699115,13.2389381 C6.47699115,11.9646018 7.43274336,10.5840708 9.13185841,10.5840708 L81.0221239,10.5840708 C82.8274336,10.5840708 83.6769912,11.8584071 83.6769912,13.2389381 C83.6769912,14.5132743 82.8274336,15.7858407 81.0221239,15.7858407 L47.5725664,15.6814159 C46.2982301,22.4778761 44.599115,30.759292 42.6893805,39.3610619 L61.059292,39.3610619 C67.9619469,39.4672566 72.1035398,43.1840708 72.1035398,49.3433628 C72.1035398,55.3964602 71.5725664,76.4212389 71.4663717,80.4566372 L88.2433628,80.3504425 C89.9424779,80.3504425 90.7920354,81.7309735 90.7920354,83.0053097 C90.7920354,84.3858407 89.9424779,85.660177 88.2433628,85.660177 L2.65575221,85.660177 Z"/>
    <g transform="translate(107.195 .81)">
      <mask id="logo-white-b" fill="#fff">
        <use xlink:href="#logo-white-a"/>
      </mask>
      <path fill="#FFF" d="M26.2909735,45.8776991 L26.2909735,56.8157522 C30.220177,56.9219469 33.9369912,56.9219469 37.4414159,56.9219469 C44.5546903,56.9219469 50.820177,56.8157522 56.3423009,56.4971681 C61.3334513,56.2847788 63.0325664,53.3113274 63.0325664,45.8776991 L26.2909735,45.8776991 Z M63.0325664,41.5237168 C63.0325664,35.0458407 62.3953982,30.9060177 56.3423009,30.7980531 C53.899823,30.6918584 51.0325664,30.6918584 47.9529204,30.6918584 C42.8555752,30.6918584 37.4414159,30.7980531 32.8750442,30.9060177 C28.6272566,31.0122124 26.5033628,33.240531 26.3971681,37.1697345 C26.3971681,38.3378761 26.2909735,39.8246018 26.2909735,41.5237168 L63.0325664,41.5237168 Z M41.3706195,16.7821239 C41.3706195,15.1892035 42.7493805,14.339646 44.1316814,14.339646 C45.5104425,14.339646 46.8927434,15.1892035 46.8927434,16.7821239 L46.8927434,26.3378761 C50.5015929,26.3378761 53.899823,26.3378761 57.2980531,26.4458407 C65.1564602,26.6582301 67.8113274,30.9060177 68.0237168,35.0458407 C68.1299115,37.5945133 68.2361062,40.9927434 68.2361062,44.1785841 C68.2361062,58.5148673 67.5989381,61.1697345 46.7865487,61.1697345 C48.8024779,65.2033628 51.3511504,68.8139823 54.3246018,71.7892035 C61.2272566,69.3449558 68.660885,66.2670796 74.9263717,62.5484956 C75.4573451,62.2316814 75.9883186,62.1254867 76.519292,62.1254867 C78.1122124,62.1254867 79.3865487,63.399823 79.3865487,64.780354 C79.3865487,66.3732743 78.1122124,68.3909735 58.36,75.1874336 C65.6874336,80.7077876 75.2449558,83.8936283 86.9246018,84.7431858 C88.6237168,84.8493805 89.4732743,86.0175221 89.4732743,87.2918584 C89.4732743,88.7785841 88.3069027,90.2653097 86.0750442,90.2653097 C85.2254867,90.2653097 54.2184071,89.5219469 41.4768142,61.2759292 C36.4856637,61.2759292 31.2821239,61.1697345 26.1847788,61.0635398 C26.0785841,65.2033628 26.0785841,69.9838938 26.0785841,74.6546903 L26.0785841,80.3909735 C32.7688496,78.6918584 39.0343363,76.7785841 43.5989381,75.0812389 C43.9175221,74.9732743 44.2378761,74.8670796 44.5546903,74.8670796 C46.0414159,74.8670796 47.1033628,76.1414159 47.1033628,77.4157522 C47.1033628,78.3715044 46.5723894,79.3272566 45.0874336,79.8582301 C30.9635398,85.2741593 5.90159292,90.2653097 4.09628319,90.2653097 C2.18477876,90.2653097 1.22902655,88.8847788 1.22902655,87.6104425 C1.22902655,86.3361062 1.97238938,85.1679646 3.67150442,84.9555752 C9.29982301,84.1060177 15.140531,82.9378761 20.8750442,81.6635398 C20.8750442,66.479469 20.8750442,49.2759292 20.9812389,35.6830088 C20.9812389,30.9060177 24.379469,26.6582301 31.0697345,26.4458407 C34.4679646,26.3378761 37.9723894,26.3378761 41.3706195,26.3378761 L41.3706195,16.7821239 Z M85.2254867,32.4971681 C82.1476106,32.4971681 60.059115,19.2246018 48.3776991,8.39274336 C46.8927434,7.01221239 45.5104425,6.26884956 44.1316814,6.26884956 C42.9617699,6.26884956 41.6892035,6.9060177 40.3069027,8.28654867 C29.2644248,19.6493805 6.85911504,35.1520354 3.46088496,35.1520354 C1.76176991,35.1520354 0.485663717,33.6653097 0.485663717,32.2847788 C0.485663717,31.3290265 1.01840708,30.3732743 2.29097345,29.7361062 C14.6095575,24.0033628 28.7334513,12.8529204 36.9104425,4.25115044 C38.9281416,2.12725664 41.2626549,0.959115044 43.8113274,0.959115044 C46.2538053,0.959115044 48.8024779,2.02106195 51.4573451,4.35734513 C61.8644248,13.4900885 74.1830088,21.0281416 86.7139823,26.8688496 C87.880354,27.4015929 88.4130973,28.4635398 88.4130973,29.419292 C88.4130973,31.0122124 87.1369912,32.4971681 85.2254867,32.4971681 L85.2254867,32.4971681 Z" mask="url(#logo-white-b)"/>
    </g>
  </g>
</svg>
